PathFileType	4	(X/Y/Z)	Patient4_TMGait_0pt5_02_right_39.trc.trc
DataRate	CameraRate	NumFrames	NumMarkers	Units	OrigDataRate	OrigDataStartFrame	OrigNumFrames
76.923076923077	76.923076923077	4	33	mm	76.923076923077	36	       141
Frame#	Time	Sacral			L.Shoulder			Chest			R.Shoulder			Neck			R.ASIS			L.ASIS			R.Thigh.Superior			R.Thigh.Lateral			R.Thigh.Inferior			R.Patella			L.Thigh.Superior			L.Thigh.Lateral			L.Thigh.Inferior			L.Patella			L.Shank.Superior			L.Shank.Lateral			L.Shank.Inferior			R.Shank.Superior			R.Shank.Lateral			R.Shank.Inferior			R.Heel			R.Midfoot.Superior			R.Midfoot.Lateral			R.Toe			L.Heel			L.Midfoot.Lateral			L.Midfoot.Superior			L.Toe			L.Elbow			L.Wrist			R.Elbow			R.Wrist			
		X1	Y1	Z1	X2	Y2	Z2	X3	Y3	Z3	X4	Y4	Z4	X5	Y5	Z5	X6	Y6	Z6	X7	Y7	Z7	X8	Y8	Z8	X9	Y9	Z9	X10	Y10	Z10	X11	Y11	Z11	X12	Y12	Z12	X13	Y13	Z13	X14	Y14	Z14	X15	Y15	Z15	X16	Y16	Z16	X17	Y17	Z17	X18	Y18	Z18	X19	Y19	Z19	X20	Y20	Z20	X21	Y21	Z21	X22	Y22	Z22	X23	Y23	Z23	X24	Y24	Z24	X25	Y25	Z25	X26	Y26	Z26	X27	Y27	Z27	X28	Y28	Z28	X29	Y29	Z29	X30	Y30	Z30	X31	Y31	Z31	X32	Y32	Z32	X33	Y33	Z33	

36	51.415000000000	732.395657250857	1007.351198171543	471.156180413530	939.188177875933	1430.596982596759	306.679513232435	1018.282036861867	1360.559202453256	479.976203641669	912.903357354524	1436.177080427689	641.641043288539	920.170651083467	1492.457407707429	457.009462579978	949.073207269801	942.230834563820	609.719840552224	957.266162351553	955.576785336414	335.840370427351	1006.673396127801	748.526711698033	578.885681317063	931.125571532115	636.153036707922	636.424794920888	1013.527041434773	588.148552664295	557.616911700893	1020.822132446956	500.690544222617	563.357765863036	988.728464819371	735.845020332089	364.766761868922	902.151898345655	624.406588316070	294.648201480669	979.678870693293	538.608649092953	360.101557976093	971.391646646380	455.115714802230	359.243055827942	909.012432372995	395.531198530218	350.417537419205	778.522594890843	337.265283716417	292.452799843260	770.462554988930	211.312762746844	353.851322405475	1000.635022701659	411.377984929324	571.704373229906	937.557596646502	303.553482590679	634.984841399192	987.028013246701	211.245192209335	572.942825646324	864.449841428181	43.001496010650	544.977659940970	1034.819007796506	98.286293321416	578.423314182473	948.422910509784	37.068926459397	619.032525669758	1156.326860758533	45.743872222618	605.599066486465	586.111926796964	120.551524384952	383.486026369147	654.646918193426	83.481524831319	309.012526444981	753.244825940781	111.679072224377	335.298187532026	851.284768694488	33.961051621500	317.865935411382	969.299224353635	1083.793333412709	172.530724605223	1187.364947204550	940.183801876318	182.988120560929	811.379790762667	1099.088407302253	743.138109825829	868.740207539402	843.835761180002	750.701984350379	
37	51.428000000000	732.210049956259	1007.521915488782	474.527976824392	937.998211121317	1431.042134128971	309.289957414129	1018.345884117839	1360.779692178648	481.945056548627	914.181771102040	1436.123520481586	644.472844462671	920.069650775972	1492.691201103808	459.898511063541	949.720013794453	942.608110447711	611.740361603798	956.653534705925	955.826307370823	337.782258441176	1005.743545523668	747.784555278244	581.798093333704	929.044120372450	636.062279583963	638.697902685512	1011.323668151548	587.570683959854	559.947536605876	1017.970158404926	500.046731571774	565.212556194209	993.274673542155	738.326759809208	366.850970879532	911.075846095037	624.682951461363	296.071181889752	991.741424855761	540.637835802565	361.028006915039	984.654220145363	455.827100020241	359.384952056199	920.174075798839	396.406423891837	350.755933772221	787.260045351734	343.314181239495	293.172264205432	775.329370130594	217.197129305190	353.541539240265	997.123005527020	410.878385157591	573.151852666409	933.383089434706	303.310960557470	636.104312845303	981.894807242175	210.868674799317	573.548164963113	858.104209770318	43.072729380660	545.117400911892	1028.552532794662	98.136909050455	578.701231751694	942.050307485757	37.041849660197	619.190371133962	1150.057762585927	45.193336152220	605.837789972794	587.490903258765	136.223519807743	382.908915063299	653.612556213233	94.529751579892	308.675482152575	753.823674844285	116.332361922130	334.861865988097	845.523584066762	32.847860139070	318.134582118244	964.672437119656	1082.799336568222	177.398666289000	1176.480487678208	929.341869633555	186.646215949315	820.831658418668	1096.505411179888	747.628023506987	892.253774242127	844.834099063800	753.040161874050	
38	51.441000000000	731.891802954411	1007.553434012689	477.762790752965	936.559859078303	1431.286205217878	311.671165882101	1018.277492777810	1360.875162501231	483.668227772273	915.395740719719	1435.958009787309	647.105726672295	919.805471583434	1492.786559061096	462.556767520509	950.155798425615	942.849640823983	613.742785604132	956.064553797221	955.920890049692	339.725834813252	1004.711441454285	747.004146736064	584.905878896164	926.845388229110	635.877214114772	641.000586854120	1009.152014779084	586.970796364034	562.446633025258	1015.150089354121	499.359875377547	567.246995731735	997.779543728215	740.978017983502	368.922866431875	920.044673504622	625.306134139502	297.351781705902	1003.653455042422	543.161693364361	361.950429509709	997.890396757934	457.144786487674	359.693584486639	931.573633399581	397.749242764862	351.153129384893	796.568604644801	349.643420677646	293.779520660559	780.834909676893	223.524018181727	353.311577895764	993.622542369504	410.319240789405	574.697258695660	929.132848714759	303.007249317299	637.220489379628	976.732059815991	210.443091384222	574.204666031738	851.676871177056	43.148700508768	545.249403173825	1022.223234998173	97.947934776983	578.972929163348	935.595643384937	37.006249511132	619.337696748641	1143.708922885846	44.574678725993	606.071825987374	589.970678187415	152.347187730631	382.198048571511	653.634851699325	106.279587854918	308.248032302012	755.131630451392	121.654026539030	334.562992561460	840.386281743472	31.789656304499	318.464814587271	959.886682676206	1081.617253284371	182.145316181490	1164.646796950869	918.262881079261	190.164802916326	830.634366132833	1094.152656302355	752.274904561510	916.228416025092	846.935420004706	755.251229153008	
39	51.454000000000	731.457513513620	1007.488037480355	480.830858958561	934.942682318098	1431.365331755525	313.812545917790	1018.088659686371	1360.875633885754	485.153573170432	916.529212053941	1435.735925643424	649.519320270593	919.414992322324	1492.786322588993	464.960741289263	950.371017247505	942.994734982307	615.742152004687	955.480927695005	955.909496860219	341.687231110584	1003.622772669464	746.252719318934	588.088287228368	924.620548028323	635.641673354656	643.272661828390	1007.057842775591	586.381996732844	565.019410212076	1012.400633735342	498.653264306348	569.379661968239	1002.113533485189	743.815256936797	371.001164212230	928.854134885298	626.347551956325	298.503442573404	1015.168120618719	546.211635650445	362.891505262790	1010.877244112996	459.103163345227	360.155442790284	942.996483427324	399.590113757508	351.610581497502	806.254311472738	356.126173858055	294.265781725801	786.904582074425	230.124714352194	353.150595980171	990.170324061826	409.726640259377	576.285059525004	924.853839037654	302.684556776506	638.318584346679	971.567285383427	209.994679382414	574.890343205154	845.191045714452	43.238056730035	545.387367242078	1015.852634662572	97.746251422681	579.241559033905	929.085990988158	36.972690540272	619.479572042881	1137.301483010264	43.928188169069	606.302453127504	593.524066530127	168.329163332646	381.352570680174	654.829921795083	118.284531796525	307.725842917773	757.262892560916	127.499951738166	334.378321473918	836.247146254285	30.904484144197	318.828742057657	954.932865112351	1080.289323188875	186.756790016709	1151.799334250420	907.071793940065	193.528052590245	840.791741600602	1092.092191522636	756.995966070065	940.504652030092	850.224539164455	757.269848442529	
